<?xml version="1.0" encoding="UTF-8"?>
<!-- Created with Inkscape (http://www.inkscape.org/) -->
<svg id="svg1334" width="22" height="22" version="1.0" xmlns="http://www.w3.org/2000/svg" xmlns:cc="http://creativecommons.org/ns#" xmlns:dc="http://purl.org/dc/elements/1.1/" xmlns:rdf="http://www.w3.org/1999/02/22-rdf-syntax-ns#" xmlns:xlink="http://www.w3.org/1999/xlink">
 <metadata id="metadata1339">
  <rdf:RDF>
   <cc:Work rdf:about="">
    <dc:format>image/svg+xml</dc:format>
    <dc:type rdf:resource="http://purl.org/dc/dcmitype/StillImage"/>
   </cc:Work>
  </rdf:RDF>
 </metadata>
 <g id="layer1" transform="translate(0,-42)" fill="#fff">
  <path id="path1336" d="m13.687 51.404-1.0529 1.0956 6.1184 5.8623 1.0529-1.0956-6.1184-5.8623z" color="#000000" opacity=".5" style="block-progression:tb;text-indent:0;text-transform:none"/>
  <rect id="rect1334" x="15.859" y="55.95" width="5.8487" height="3.0608" ry=".94736"/>
  <path id="path3123" d="m10.229 44.759 0.01423 6.1611h1.5225l-0.01423-6.1611h-1.5225z" color="#000000" opacity=".5" style="block-progression:tb;text-indent:0;text-transform:none"/>
  <rect id="rect2242" x="7.4299" y="43.113" width="6.441" height="3.3412" ry="1.169"/>
  <path id="path4881" d="m12.776 54.477-1.4798 0.36995 1.6506 6.8441 1.4798-0.35572-1.6506-6.8583z" color="#000000" opacity=".5" style="block-progression:tb;text-indent:0;text-transform:none"/>
  <path id="path4883" d="m3.428 46.779-1.0529 1.0956 6.1327 5.8623 1.0529-1.0956-6.1327-5.8623z" color="#000000" opacity=".5" style="block-progression:tb;text-indent:0;text-transform:none"/>
  <rect id="rect3121" x="1.077" y="46.874" width="6.4042" height="3.3044" ry="1.1708"/>
  <path id="path1387-4" d="m0.66451 62.179c0.73711 0.91955 2.5558-0.62684 3.1147-0.61884 0.92732 0.01326 1.4991-0.01131 2.2993-0.05495 1.0363-0.05652 2.041-0.60548 2.1409-1.983 0.013866-0.19126 0.11615-0.41279-0.022896-0.54099-0.41933-0.38662-1.0912-1.0893-1.5227-1.689" fill-rule="evenodd"/>
  <path id="path1425" d="m21.338 45.209s-0.19098-0.22527-0.51515-0.3735c-0.80991-0.37034-5.8241 2.6234-6.2253 2.8313-0.40113 0.20798-4.9011 2.8361-6.3116 4.4337-1.4104 1.5976-1.4875 0.95743-1.6791 2.7158 0.48627 0.64674 1.572 2.1631 2.3295 2.7771 1.8104 0.05671 1.7404 0.38734 3.5555-0.75654 1.8152-1.1439 5.1011-5.1333 5.3673-5.4925 0.26623-0.35923 3.8449-4.7631 3.7296-5.6296-0.04348-0.32671-0.31994-0.58006-0.31994-0.58006" fill-rule="evenodd"/>
  <rect id="rect1328" x="10.771" y="59.734" width="5.6436" height="3.1634" ry="1.1015"/>
  <path id="path1387-4-3" d="m0.86735 62.404c-0.7703-0.89193 1.0808-2.3993 1.1745-2.9504 0.15546-0.91429 0.28352-1.4721 0.47183-2.251 0.24389-1.0088 0.96628-1.897 2.339-1.7449 0.1906 0.02107 0.42703-0.03921 0.52782 0.12081 0.30398 0.4826 0.87286 1.2709 1.3842 1.8043" fill-rule="evenodd"/>
 </g>
</svg>
