<?xml version="1.0" encoding="UTF-8"?>
<svg width="512" height="512" version="1.1" xmlns="http://www.w3.org/2000/svg" xmlns:xlink="http://www.w3.org/1999/xlink">
 <defs>
  <linearGradient id="linearGradient4084" x1="993.44" x2="988.79" y1="51.512" y2="363.74" gradientTransform="translate(778.6 -360.56)" gradientUnits="userSpaceOnUse">
   <stop stop-color="#fff" offset="0"/>
   <stop stop-color="#fff" stop-opacity="0" offset="1"/>
  </linearGradient>
  <linearGradient id="linearGradient4086" x1="1764.6" x2="1763.7" y1="155.6" y2="-55.941" gradientUnits="userSpaceOnUse">
   <stop offset="0"/>
   <stop stop-color="#fff" stop-opacity=".2" offset="1"/>
  </linearGradient>
  <linearGradient id="linearGradient4114-2" x1="1012.5" x2="1006.8" y1="484.42" y2="20.626" gradientTransform="matrix(1.0318 0 0 1.0318 -842.85 .56072)" gradientUnits="userSpaceOnUse" xlink:href="#ButtonShadow-0-1-1-5"/>
  <linearGradient id="ButtonShadow-0-1-1-5" x1="45.448" x2="45.448" y1="92.54" y2="7.0165" gradientTransform="matrix(1.0059 0 0 .99417 100 0)" gradientUnits="userSpaceOnUse">
   <stop offset="0"/>
   <stop stop-opacity=".58824" offset="1"/>
  </linearGradient>
  <linearGradient id="linearGradient4112-2" x1="1012.5" x2="1006.8" y1="484.42" y2="20.626" gradientTransform="matrix(1.0403 0 0 1.0403 -849.94 .40106)" gradientUnits="userSpaceOnUse" xlink:href="#ButtonShadow-0-1-1-5"/>
  <linearGradient id="linearGradient4110-6" x1="1012.5" x2="1006.8" y1="484.42" y2="20.626" gradientTransform="matrix(1.0233 0 0 1.0233 -835.76 .72038)" gradientUnits="userSpaceOnUse" xlink:href="#ButtonShadow-0-1-1-5"/>
  <linearGradient id="linearGradient4116-6" x1="1012.5" x2="1006.8" y1="484.42" y2="20.626" gradientTransform="matrix(1.0148 0 0 1.0148 -828.68 .88004)" gradientUnits="userSpaceOnUse" xlink:href="#ButtonShadow-0-1-1-5"/>
  <linearGradient id="linearGradient3433" x1="1012.5" x2="1006.8" y1="484.42" y2="20.626" gradientTransform="matrix(1.0074 0 0 1.0074 -822.47 1.0197)" gradientUnits="userSpaceOnUse" xlink:href="#ButtonShadow-0-1-1-5"/>
  <linearGradient id="_Linear1" x2="1" gradientTransform="matrix(244.69 1281.6 -1281.6 244.69 -44.692 -886.62)" gradientUnits="userSpaceOnUse">
   <stop stop-color="#fff" offset="0"/>
   <stop stop-color="#fff" offset=".34"/>
   <stop stop-color="#bebdf3" offset=".51"/>
   <stop stop-color="#867fb7" offset=".75"/>
   <stop stop-color="#9f99c7" offset=".87"/>
   <stop stop-color="#524c76" offset="1"/>
  </linearGradient>
  <linearGradient id="_Linear2" x2="1" gradientTransform="matrix(-73.91 -331.39 331.39 -73.91 256.32 293.13)" gradientUnits="userSpaceOnUse">
   <stop stop-color="#fff" offset="0"/>
   <stop stop-color="#fff" offset=".34"/>
   <stop stop-color="#bebbdb" offset=".51"/>
   <stop stop-color="#928bbe" offset=".75"/>
   <stop stop-color="#9f99c7" offset=".87"/>
   <stop stop-color="#524c76" offset="1"/>
  </linearGradient>
  <radialGradient id="_Radial3" cx="0" cy="0" r="1" gradientTransform="matrix(65.776 0 0 50.415 169.62 91.661)" gradientUnits="userSpaceOnUse">
   <stop stop-color="#fff" offset="0"/>
   <stop stop-color="#fff" offset=".34"/>
   <stop stop-color="#bebbdb" offset=".51"/>
   <stop stop-color="#928bbe" offset=".75"/>
   <stop stop-color="#9f99c7" offset=".87"/>
   <stop stop-color="#524c76" offset="1"/>
  </radialGradient>
  <radialGradient id="_Radial4" cx="0" cy="0" r="1" gradientTransform="matrix(-9.0171 572.14 -487.96 -7.683 19.969 107.8)" gradientUnits="userSpaceOnUse">
   <stop stop-color="#fff" offset="0"/>
   <stop stop-color="#fff" offset=".34"/>
   <stop stop-color="#bebbdb" offset=".51"/>
   <stop stop-color="#928bbe" offset=".75"/>
   <stop stop-color="#9f99c7" offset=".87"/>
   <stop stop-color="#524c76" offset="1"/>
  </radialGradient>
 </defs>
 <path d="m256.16 176.03c-12.052 0-23.469 2.6936-33.719 7.4688-6.9288 8.5596-4.9183 15.411-12.969 7.5938-20.144 14.52-33.281 38.178-33.281 64.906 0 26.773 13.204 50.455 33.406 64.969 9.9464 1.0052 9.4378-0.9962 12.969 7.5938 10.219 4.7422 21.586 7.4062 33.594 7.4062 41.785 0 76.084-32.048 79.656-72.906 0 0-1.4661-1.4961-0.094-15.031-4.0093-40.411-38.097-72-79.563-72z" color="#000000" display="none" fill="#fff"/>
 <g transform="matrix(.9776 0 0 .9776 5.4481 5.4481)">
  <g>
   <rect x="20" y="20" width="487" height="487" ry="101.46" color="#000000" fill="url(#linearGradient4114-2)" opacity=".1"/>
   <rect x="20" y="20" width="491" height="491" ry="102.29" color="#000000" fill="url(#linearGradient4112-2)" opacity=".08"/>
   <rect x="20" y="20" width="483" height="483" ry="100.63" color="#000000" fill="url(#linearGradient4110-6)" opacity=".2"/>
   <rect x="20" y="20" width="479" height="479" ry="99.792" color="#000000" fill="url(#linearGradient4116-6)" opacity=".25"/>
   <rect x="20" y="20" width="475.5" height="475.5" ry="99.062" color="#000000" fill="url(#linearGradient3433)" opacity=".25"/>
   <g transform="matrix(1.0926 0 0 1.0926 -23.696 -23.704)" fill="#9254e8" stroke-width="1.0004">
    <rect x="39.997" y="40" width="432" height="432" ry="90" color="#000000"/>
    <rect x="39.997" y="40" width="432" height="432" ry="90" color="#000000"/>
   </g>
  </g>
  <g transform="translate(-1532.2 330.42)">
   <path d="m1650.5-310.42c-54.477 0-98.312 43.836-98.312 98.312v275.34c0 54.477 43.836 98.344 98.312 98.344h2.9375c-53.322 0-96.25-42.928-96.25-96.25v-269.5c0-53.322 42.928-96.25 96.25-96.25h269.5c53.322 0 96.25 42.928 96.25 96.25v269.5c0 53.323-42.928 96.25-96.25 96.25h2.9062c54.477 0 98.344-43.867 98.344-98.344v-275.34c0-54.477-43.867-98.312-98.344-98.312z" color="#000000" fill="url(#linearGradient4084)" opacity=".5"/>
   <path d="m1650.5 161.58c-54.477 0-98.312-43.836-98.312-98.313v-275.34c0-54.477 43.836-98.344 98.312-98.344h2.9375c-53.322 0-96.25 42.928-96.25 96.25v269.5c0 53.323 42.928 96.25 96.25 96.25h269.5c53.322 0 96.25-42.928 96.25-96.25v-269.5c0-53.322-42.928-96.25-96.25-96.25h2.9062c54.477 0 98.344 43.867 98.344 98.344v275.34c0 54.477-43.867 98.313-98.344 98.313z" color="#000000" fill="url(#linearGradient4086)" opacity=".2"/>
  </g>
  <g transform="translate(56.672 55.659)" clip-rule="evenodd" fill-rule="evenodd" stroke-linejoin="round" stroke-miterlimit="1.4142">
   <path d="m13.83 315.95c0.043-16.447 14.024-39.408 33.889-60.268 13.276-13.941 26.759-26.178 56.15-51.238-20.33-11.156-51.95-24.615-67.815-42.242-5.87-6.522-16.511-21.298-14.447-41.039 4.206-40.236 53.869-101.3 124.46-114.21 23.488-4.296 50.455-1.195 72.65 8.783 69.629 31.304 154.78 109.07 165.26 147.05 3.688 13.366 2.979 34.671-3.379 46.545-7.879 14.716-35.156 44.606-72.475 75.449-58.556 48.394-140.61 100.36-201.88 109.1-19.798 2.826-40.024-0.121-54.218-8.13-22.209-12.532-29.581-29.262-32.172-34.277-6.891-13.334-6.036-30.228-6.021-35.525zm164.8-184.78c0.756-9.325 37.321-0.042 35.011 7.343-2.437 7.791-35.879 3.354-35.011-7.343z" fill="url(#_Linear1)"/>
   <g id="mid">
    <path d="m123.66 189.04c-19.242 16.246-32.036 27.2-48.075 41.86-38.626 35.304-64.871 62.176-51.34 98.909 15.609 42.374 49.824 40.226 89.947 32.35 103.42-20.398 273.43-151.1 264.76-199.37-7.012-39.061-101.99-116.72-158.23-144.36-17.569-8.634-37.816-13.099-58.124-12.143-77.327 3.65-137.72 74.052-134.63 112.2 3.001 37.11 96.795 69.446 95.688 70.553zm-11.607-129.55c-23.268 25.888-8.392 75.974 30.195 103.27 45.152 31.945 118.27 37.729 132.82 13.093 27.14-45.952-2.493-94.54-46.727-116.21-43.711-21.418-101.78-16.29-116.29-0.153z" fill="url(#_Linear2)"/>
    <path d="m191.4 161.67c32.666 4.541 60.822-8.541 65.225-40.798 3.354-24.571-34.25-51.417-56.859-57.608-18.88-5.171-59.869 1.478-62.633 37.186-2.872 37.121 35.22 58.573 54.267 61.22zm-15.996-61.739c-21.468 33.258 31.169 43.483 39.228 37.418 34.744-26.149-29.77-52.07-39.228-37.418z" fill="url(#_Radial3)"/>
   </g>
   <path d="m156.37 15.122c-37.974 4.001-45.246 8.889-79.647 34.916-11.53 8.723-32.75 29.948-38.187 55.128-2.071 9.59 0.377 17.87 7.283 23.676 22.116 18.593 59.131 33.677 89.498 48.259 8.894 4.271 3.005 12.015-11.338 24.432-36.194 31.334-85.128 69.476-88.544 98.54-1.61 13.695 3.079 32.305 19.702 41.828 19.419 11.125 59.729 3.864 86.646-6.159 39.334-14.647 91.003-46.973 132.02-78.748 42.655-33.043 82.316-75.011 84.277-81.856 2.409-8.406 2.169-16.169-2.48-25.096-7.301-14.017-17.062-24.432-27.542-36.091-28.122-29.647-57.876-55.697-93.475-75.66-25.707-14.416-48.325-26.319-78.216-23.169zm55.781 66.466c27.434 13.263 55.606 48.102-0.245 68.154-15.187 5.453-63.352-13.391-61.878-39.107 2.15-37.987 28.625-45.242 62.123-29.047z" fill="url(#_Radial4)"/>
  </g>
 </g>
</svg>
