<?xml version="1.0" encoding="UTF-8"?>
<svg width="22" height="22" version="1.1" viewBox="0 0 5.8208 5.8208" xmlns="http://www.w3.org/2000/svg">
 <path class="ColorScheme-Text" d="m5.2343 0.69968-4.8571 1.86s-0.11827 0.059092-0.1124 0.16226c0.00587 0.10317 0.1124 0.15894 0.1124 0.15894l1.2696 0.44689 0.43363 1.3732s0.041199 0.17306 0.2041 0.22315c0.1629 0.050096 0.30535-0.085495 0.30535-0.085495l0.58128-0.59985 1.126 0.83725s0.10375 0.075612 0.21815 0.065837c0.1144-0.00977 0.17691-0.16027 0.17691-0.16027l0.85596-4.0559s0.041378-0.14853-0.063182-0.21613c-0.079604-0.064826-0.25073-0.00996-0.25073-0.00996zm-0.58527 0.75413c0.02779 0.027698-0.020616 0.076477-0.020616 0.076477-0.7592 0.69946-1.5177 1.3997-2.2772 2.0988-0.028119 0.027061-0.0364 0.055163-0.04057 0.095097l-0.045226 0.43825-0.3199-1.0268 2.6197-1.6898s0.05601-0.019718 0.0838 0.00798zm-2.0085 2.3901 0.25539 0.19019-0.30793 0.31854z" color="#eff0f1" fill="#19b6ee"/>
</svg>
