<?xml version="1.0" encoding="UTF-8"?>
<svg id="svg4" width="500" height="500" version="1.0" viewBox="0 0 375 375" xmlns="http://www.w3.org/2000/svg" zoomAndPan="magnify">
 <defs id="defs4">
  <clipPath id="clipPath1">
   <path id="path4" d="m179.66 243.95-42.238-42.262c-3.1953-3.1992-7.8281-2.668-10.379 1.1875l-9.1758 13.941c-2.543 3.8516-2.2148 9.3398 0.71094 12.273l33.688 33.719c2.9258 2.9297 8.418 3.2461 12.266 0.71093l13.934-9.1914c3.8594-2.543 4.3828-7.1797 1.1953-10.379z" display="none" fill="#fff"/>
   <path id="lpe_path-effect5" class="powerclip" d="m32.445 223h125.58v104.05h-125.58zm147.22 20.951-42.238-42.262c-3.1953-3.1992-7.8281-2.668-10.379 1.1875l-9.1758 13.941c-2.543 3.8516-2.2148 9.3398 0.71094 12.273l33.688 33.719c2.9258 2.9297 8.418 3.2461 12.266 0.71093l13.934-9.1914c3.8594-2.543 4.3828-7.1797 1.1953-10.379z" fill="#fff"/>
  </clipPath>
  <clipPath id="clipPath4">
   <path id="path5" d="m179.66 243.95-42.238-42.262c-3.1953-3.1992-7.8281-2.668-10.379 1.1875l-9.1758 13.941c-2.543 3.8516-2.2148 9.3398 0.71094 12.273l33.688 33.719c2.9258 2.9297 8.418 3.2461 12.266 0.71093l13.934-9.1914c3.8594-2.543 4.3828-7.1797 1.1953-10.379z" display="none" fill="#fff"/>
   <path id="lpe_path-effect6" class="powerclip" d="m113.35 47.75h219.82v219.95h-219.82zm66.315 196.2-42.238-42.262c-3.1953-3.1992-7.8281-2.668-10.379 1.1875l-9.1758 13.941c-2.543 3.8516-2.2148 9.3398 0.71094 12.273l33.688 33.719c2.9258 2.9297 8.418 3.2461 12.266 0.71093l13.934-9.1914c3.8594-2.543 4.3828-7.1797 1.1953-10.379z" fill="#fff"/>
  </clipPath>
 </defs>
 <path id="path1" d="m153.03 262.7c22.996-13.836 54.223-31.133 80.898-57.828 57.457-57.48 104.03-138.78 92.469-150.35-11.559-11.562-92.801 35.043-150.26 92.527-26.684 26.699-43.961 57.941-57.789 80.953z" clip-path="url(#clipPath4)" fill="#333"/>
 <path id="path2" d="m37.445 320.53s57.793 11.566 98.246-28.914c17.336-17.348 17.336-40.473 17.336-40.473l-23.121-23.137s-28.891 5.7891-40.457 17.352c-11.555 11.566-20.578 34.609-23.602 45.781-5.5234 20.461-28.402 29.391-28.402 29.391z" clip-path="url(#clipPath1)" fill="#333"/>
</svg>
